<svg width="64" height="64" viewBox="0 0 64 64" fill="none" xmlns="http://www.w3.org/2000/svg">
<circle cx="32" cy="32" r="32" fill="white"/>
<path d="M43.784 13.76H45.224L43.208 23.216H41.576C41.48 20.304 40.952 18.208 39.992 16.928C39.032 15.648 37.528 15.008 35.48 15.008C34.488 15.008 33.576 15.152 32.744 15.44C31.912 15.696 31.192 16.08 30.584 16.592C30.008 17.104 29.544 17.712 29.192 18.416C28.872 19.088 28.712 19.824 28.712 20.624C28.712 21.776 29.032 22.8 29.672 23.696C30.312 24.592 31.112 25.44 32.072 26.24C33.064 27.008 34.12 27.792 35.24 28.592C36.392 29.392 37.448 30.272 38.408 31.232C39.4 32.192 40.216 33.28 40.856 34.496C41.496 35.712 41.816 37.136 41.816 38.768C41.816 40.4 41.496 41.936 40.856 43.376C40.216 44.784 39.336 46.016 38.216 47.072C37.128 48.128 35.848 48.96 34.376 49.568C32.904 50.176 31.32 50.48 29.624 50.48C26.136 50.48 23.08 49.104 20.456 46.352L19.448 50H17.768L19.784 37.808H21.368C21.592 41.104 22.408 43.616 23.816 45.344C25.224 47.072 27.176 47.936 29.672 47.936C30.824 47.936 31.88 47.776 32.84 47.456C33.8 47.104 34.616 46.64 35.288 46.064C35.992 45.456 36.536 44.752 36.92 43.952C37.336 43.12 37.544 42.224 37.544 41.264C37.544 39.92 37.208 38.736 36.536 37.712C35.864 36.688 35.032 35.728 34.04 34.832C33.048 33.936 31.96 33.072 30.776 32.24C29.592 31.408 28.504 30.528 27.512 29.6C26.52 28.64 25.688 27.6 25.016 26.48C24.344 25.328 24.008 24.016 24.008 22.544C24.008 21.168 24.296 19.872 24.872 18.656C25.48 17.44 26.296 16.384 27.32 15.488C28.344 14.592 29.544 13.888 30.92 13.376C32.296 12.832 33.768 12.56 35.336 12.56C36.84 12.56 38.184 12.816 39.368 13.328C40.552 13.84 41.704 14.656 42.824 15.776L43.784 13.76Z" fill="black"/>
</svg>
